<?xml version="1.0" encoding="UTF-8"?>
<svg id="Capa_2" data-name="Capa 2" xmlns="http://www.w3.org/2000/svg" viewBox="0 0 339.18 67.67">
  <defs>
    <style>
      .cls-1 {
        fill: #fff;
      }

      .cls-2 {
        fill: #018e8e;
      }
    </style>
  </defs>
  <g id="Capa_1-2" data-name="Capa 1">
    <g>
      <g>
        <path class="cls-1" d="M19.69,21.04c.81.35,1.52.82,2.12,1.42s1.08,1.31,1.42,2.12c.35.81.52,1.67.52,2.58s-.17,1.79-.52,2.59c-.35.8-.82,1.5-1.42,2.1s-1.31,1.08-2.12,1.42c-.81.35-1.67.52-2.58.52H3.35c-.55,0-1.02-.19-1.42-.58-.4-.39-.6-.87-.6-1.44s.2-1.02.6-1.41c.4-.39.87-.58,1.42-.58h13.76c.72,0,1.33-.25,1.85-.76.52-.51.77-1.13.77-1.87s-.26-1.36-.77-1.87c-.52-.51-1.13-.76-1.85-.76H6.64c-.93,0-1.79-.17-2.59-.52-.8-.35-1.5-.82-2.1-1.42s-1.08-1.31-1.42-2.12c-.35-.81-.52-1.67-.52-2.58s.17-1.77.52-2.58c.35-.81.82-1.52,1.42-2.14.6-.61,1.3-1.09,2.1-1.44.8-.35,1.67-.52,2.59-.52h13.76c.55,0,1.02.2,1.41.6.39.4.59.88.59,1.42s-.2,1.02-.59,1.41-.86.58-1.41.58H6.64c-.74,0-1.36.26-1.87.77-.51.52-.76,1.14-.76,1.88s.25,1.33.76,1.85c.51.52,1.13.77,1.87.77h10.47c.91,0,1.77.17,2.58.52Z"/>
        <path class="cls-1" d="M47.7,30.37c.4.39.6.86.6,1.41s-.2,1.05-.6,1.44c-.4.39-.88.58-1.42.58h-17.05c-.55,0-1.02-.19-1.41-.58s-.58-.87-.58-1.44V13.24c0-.55.19-1.02.58-1.42.39-.4.86-.6,1.41-.6s1.02.2,1.42.6c.4.4.6.88.6,1.42v16.54h15.03c.55,0,1.02.2,1.42.58Z"/>
        <path class="cls-1" d="M78.45,30.96c.23.51.25,1.02.05,1.53-.2.52-.55.89-1.06,1.12-.25.13-.53.19-.82.19-.38,0-.74-.1-1.07-.32-.34-.21-.59-.5-.76-.85l-7.02-15.47c-.27-.59-.69-1.05-1.23-1.39-.55-.34-1.14-.51-1.77-.51s-1.25.17-1.79.51c-.54.34-.94.8-1.22,1.39l-7.05,15.47c-.23.51-.61.85-1.12,1.04s-1.03.17-1.53-.06c-.51-.23-.85-.61-1.04-1.12-.19-.52-.17-1.03.06-1.53l7.02-15.44c.61-1.31,1.51-2.35,2.7-3.13,1.19-.78,2.51-1.17,3.97-1.17s2.75.39,3.95,1.17c1.2.78,2.1,1.82,2.69,3.13l7.05,15.44ZM64.75,22.92c.51,0,.98.09,1.41.28.43.19.81.45,1.14.77.33.33.59.71.78,1.14.19.43.28.9.28,1.41s-.1.98-.28,1.41c-.19.43-.45.81-.78,1.14-.33.33-.71.59-1.14.77-.43.19-.9.28-1.41.28s-.98-.09-1.41-.28c-.43-.19-.81-.45-1.14-.77-.33-.33-.58-.71-.77-1.14-.19-.43-.28-.9-.28-1.41s.09-.98.28-1.41c.19-.43.45-.81.77-1.14s.71-.59,1.14-.77c.43-.19.9-.28,1.41-.28Z"/>
        <path class="cls-1" d="M99.91,11.82c.39.4.58.88.58,1.42s-.2,1.02-.58,1.41c-.39.39-.86.58-1.41.58h-7.88v16.54c0,.57-.2,1.05-.58,1.44-.39.39-.86.58-1.41.58s-1.02-.19-1.42-.58-.6-.87-.6-1.44V15.24h-7.84c-.55,0-1.02-.19-1.42-.58s-.6-.86-.6-1.41.2-1.02.6-1.42c.4-.4.88-.6,1.42-.6h19.74c.55,0,1.02.2,1.41.6Z"/>
        <path class="cls-1" d="M125.39,11.22c.55,0,1.02.2,1.42.6.4.4.6.88.6,1.42s-.2,1.02-.6,1.41-.88.58-1.42.58h-19.74c-.55,0-1.02-.19-1.41-.58-.39-.39-.59-.86-.59-1.41s.2-1.02.59-1.42c.39-.4.86-.6,1.41-.6h19.74ZM125.39,20.52c.55,0,1.02.2,1.42.59s.6.86.6,1.41-.2,1.02-.6,1.42c-.4.4-.88.6-1.42.6h-19.74c-.55,0-1.02-.2-1.41-.6-.39-.4-.59-.88-.59-1.42s.2-1.02.59-1.41c.39-.39.86-.59,1.41-.59h19.74ZM125.39,29.79c.55,0,1.02.2,1.42.58.4.39.6.86.6,1.41s-.2,1.05-.6,1.44-.88.58-1.42.58h-19.74c-.55,0-1.02-.19-1.41-.58-.39-.39-.59-.87-.59-1.44s.2-1.02.59-1.41.86-.58,1.41-.58h19.74Z"/>
        <path class="cls-1" d="M156.8,30.37c.4.39.6.86.6,1.41s-.2,1.05-.6,1.44c-.4.39-.88.58-1.42.58h-3.23c-.61,0-1.11-.21-1.49-.63l-6.14-6.64h-8.67v5.25c0,.57-.2,1.05-.6,1.44-.4.39-.88.58-1.42.58s-1.02-.19-1.41-.58c-.39-.39-.59-.87-.59-1.44v-7.28c0-.55.2-1.02.59-1.42.39-.4.86-.6,1.41-.6h14.11c.51,0,.97-.1,1.41-.28.43-.19.82-.45,1.16-.78.34-.33.6-.71.79-1.14.19-.43.29-.9.29-1.41s-.09-.98-.29-1.41c-.19-.43-.45-.82-.79-1.15-.34-.34-.72-.6-1.16-.79s-.9-.28-1.41-.28h-14.11c-.55,0-1.02-.19-1.41-.58-.39-.39-.59-.86-.59-1.41s.2-1.02.59-1.42c.39-.4.86-.6,1.41-.6h14.11c1.03,0,2.01.19,2.93.58.92.39,1.75.94,2.48,1.66,1.5,1.5,2.25,3.3,2.25,5.41s-.75,3.91-2.25,5.41c-1.01,1.01-2.19,1.68-3.54,1.99l3.23,3.51h2.34c.55,0,1.02.2,1.42.58Z"/>
        <path class="cls-1" d="M182.65,11.22c.55,0,1.02.2,1.41.6.39.4.59.88.59,1.42v18.54c0,.42-.11.8-.33,1.12-.22.33-.51.57-.87.74-.27.11-.54.16-.79.16-.53,0-.99-.18-1.39-.54l-16.35-15.37v13.89c0,.57-.2,1.05-.58,1.44-.39.39-.86.58-1.41.58s-1.02-.19-1.42-.58c-.4-.39-.6-.87-.6-1.44V13.24c0-.4.11-.76.33-1.09.22-.33.52-.57.9-.74.36-.17.73-.22,1.12-.16.39.06.73.24,1.03.54l16.35,15.34v-13.89c0-.55.19-1.02.58-1.42.39-.4.87-.6,1.44-.6Z"/>
        <path class="cls-1" d="M191.06,11.22c.55,0,1.02.2,1.42.6.4.4.6.88.6,1.42v18.54c0,.57-.2,1.05-.6,1.44-.4.39-.88.58-1.42.58s-1.02-.19-1.41-.58c-.39-.39-.59-.87-.59-1.44V13.24c0-.55.2-1.02.59-1.42.39-.4.86-.6,1.41-.6Z"/>
        <path class="cls-1" d="M219.48,21.97c.39.4.59.88.59,1.42v5.73c0,.57-.2,1.05-.6,1.46-1.12,1.08-2.44,1.88-3.95,2.42-1.52.54-3.21.81-5.06.81h-1.61c-1.86,0-3.55-.28-5.08-.84-1.53-.56-2.85-1.38-3.97-2.45-1.08-1.01-1.89-2.22-2.44-3.64-.53-1.33-.79-2.78-.79-4.37,0-.76.06-1.5.19-2.23.13-.73.33-1.43.6-2.1.55-1.39,1.36-2.61,2.44-3.67,1.12-1.08,2.44-1.89,3.97-2.45,1.53-.56,3.22-.84,5.08-.84h1.61c1.58,0,3.07.21,4.46.63.67.21,1.31.46,1.91.76.6.3,1.17.65,1.69,1.08.44.34.7.78.78,1.33.07.55-.06,1.04-.4,1.49-.34.44-.78.7-1.33.78-.55.07-1.04-.06-1.49-.4-.7-.55-1.52-.96-2.48-1.23-.96-.27-2.01-.41-3.15-.41h-1.61c-1.26,0-2.41.17-3.43.51-1.02.34-1.89.82-2.61,1.46-.72.63-1.27,1.4-1.65,2.29-.38.9-.57,1.9-.57,3.02s.19,2.12.57,3.02c.38.9.93,1.66,1.65,2.29.72.63,1.59,1.12,2.61,1.46,1.02.34,2.17.51,3.43.51h1.61c1.14,0,2.18-.14,3.12-.41.94-.27,1.77-.67,2.48-1.2v-2.75h-7.72c-.55,0-1.02-.2-1.42-.6-.4-.4-.6-.88-.6-1.42s.2-1.02.6-1.42c.4-.4.87-.6,1.42-.6h9.74c.55,0,1.02.2,1.41.6Z"/>
        <path class="cls-1" d="M245.63,11.22c.55,0,1.02.2,1.41.6.39.4.59.88.59,1.42v18.54c0,.57-.2,1.05-.59,1.44-.39.39-.86.58-1.41.58s-1.02-.19-1.42-.58-.6-.87-.6-1.44v-6.99h-15.72v6.99c0,.57-.2,1.05-.58,1.44-.39.39-.86.58-1.41.58s-1.02-.19-1.42-.58c-.4-.39-.6-.87-.6-1.44V13.24c0-.55.2-1.02.6-1.42.4-.4.88-.6,1.42-.6s1.02.2,1.41.6c.39.4.58.88.58,1.42v7.53h15.72v-7.53c0-.55.2-1.02.6-1.42.4-.4.88-.6,1.42-.6Z"/>
        <path class="cls-1" d="M273.95,11.82c.39.4.58.88.58,1.42s-.2,1.02-.58,1.41c-.39.39-.86.58-1.41.58h-7.88v16.54c0,.57-.2,1.05-.58,1.44-.39.39-.86.58-1.41.58s-1.02-.19-1.42-.58-.6-.87-.6-1.44V15.24h-7.84c-.55,0-1.02-.19-1.42-.58s-.6-.86-.6-1.41.2-1.02.6-1.42c.4-.4.88-.6,1.42-.6h19.74c.55,0,1.02.2,1.41.6Z"/>
      </g>
      <rect class="cls-1" x="294.26" y="42.8" width="23.95" height="23.95" rx="4.55" ry="4.55" transform="translate(612.47 109.55) rotate(180)"/>
      <rect class="cls-2" x="293.32" y="43.72" width="23.95" height="23.95" rx="4.55" ry="4.55" transform="translate(610.59 111.39) rotate(180)"/>
      <rect class="cls-1" x="281.51" y="22.83" width="11.27" height="11.27" rx="2.14" ry="2.14" transform="translate(574.28 56.94) rotate(180)"/>
      <rect class="cls-2" x="282.05" y="23.11" width="11.27" height="11.27" rx="2.14" ry="2.14" transform="translate(575.37 57.49) rotate(180)"/>
      <rect class="cls-1" x="297.4" y=".66" width="15.78" height="15.78" rx="3" ry="3" transform="translate(610.59 17.1) rotate(180)"/>
      <rect class="cls-2" x="298.34" y="0" width="15.78" height="15.78" rx="3" ry="3" transform="translate(612.47 15.78) rotate(180)"/>
      <rect class="cls-1" x="318.21" y="17.9" width="20.98" height="20.98" rx="3.98" ry="3.98"/>
      <rect class="cls-2" x="317.27" y="18.35" width="20.98" height="20.98" rx="3.98" ry="3.98"/>
    </g>
  </g>
</svg>